<svg width="133" height="38" viewBox="0 0 133 38" fill="none" xmlns="http://www.w3.org/2000/svg">
<path d="M0.0443782 37.2977V34.4917L9.30576 21.4104C9.87926 20.6116 10.5074 19.8128 11.1935 19.0105C11.8797 18.2083 12.5693 17.4129 13.2622 16.6244L13.6139 18.1435C12.5897 18.2356 11.5656 18.2902 10.5381 18.3039C9.51058 18.3176 8.48647 18.3278 7.46236 18.3278H0V14.4464H17.3758V17.2695L8.28165 30.1187C7.67742 30.9585 7.02199 31.7914 6.31194 32.6244C5.60189 33.4573 4.8816 34.2869 4.15789 35.1164L3.80628 33.5973C4.87818 33.5051 5.95009 33.4505 7.01858 33.4368C8.08706 33.4232 9.15214 33.413 10.2172 33.413H17.4235V37.2943H0.0443782V37.2977Z" fill="#FF8057"/>
<path d="M18.632 37.2978L26.4392 14.4498H32.5736L40.5787 37.2978H35.3797L31.7133 26.2715C31.273 24.8514 30.8258 23.2947 30.3717 21.6015C29.9177 19.9083 29.4398 18.0615 28.938 16.0577H29.9655C29.4739 18.0718 29.0165 19.9288 28.5932 21.6323C28.1699 23.3357 27.7466 24.8821 27.3267 26.2715L23.8004 37.2978H18.632ZM23.5102 31.9894V28.3231H35.7005V31.9894H23.5102Z" fill="#FF8057"/>
<path d="M44.7024 37.2978L38.568 14.4498H43.6749L46.3273 25.6912C46.5424 26.6333 46.7404 27.637 46.9179 28.7055C47.0954 29.7739 47.2729 30.8458 47.447 31.9246C47.6211 33.0033 47.7884 34.0377 47.9523 35.0311H47.1227C47.3071 34.0411 47.4914 33.0033 47.6758 31.9246C47.8601 30.8458 48.0479 29.7739 48.2424 28.7055C48.437 27.637 48.6521 26.6333 48.8876 25.6912L51.68 14.4498H56.5411L59.3165 25.6912C59.552 26.6333 59.7671 27.637 59.9617 28.7055C60.1563 29.7739 60.3474 30.8458 60.5352 31.9246C60.7229 33.0033 60.9107 34.0377 61.095 35.0311H60.2348C60.4089 34.0411 60.5796 33.0033 60.7468 31.9246C60.9141 30.8458 61.095 29.7739 61.2828 28.7055C61.4705 27.637 61.6685 26.6333 61.8734 25.6912L64.5258 14.4498H69.6464L63.4983 37.2978H58.1627L55.1279 25.6126C54.8002 24.3154 54.5236 22.909 54.2915 21.3967C54.0628 19.8844 53.8034 18.3244 53.5166 16.7199H54.6807C54.3632 18.2834 54.1072 19.8128 53.9058 21.3045C53.7078 22.7963 53.4278 24.2335 53.0694 25.6126L50.0483 37.2978H44.6956H44.7024Z" fill="#FF8057"/>
<path d="M67.646 37.2978L75.4531 14.4498H81.5876L89.5927 37.2978H84.3936L80.7273 26.2715C80.2869 24.8514 79.8397 23.2947 79.3857 21.6015C78.9317 19.9083 78.4538 18.0615 77.952 16.0577H78.9795C78.4879 18.0718 78.0305 19.9288 77.6072 21.6323C77.1839 23.3357 76.7606 24.8821 76.3407 26.2715L72.8143 37.2978H67.646ZM72.5242 31.9894V28.3231H84.7145V31.9894H72.5242Z" fill="#FF8057"/>
<path d="M95.8329 14.4464V37.2943H91.1561V14.4464H95.8329ZM99.192 37.2977H93.2726V33.2662H98.9633C100.435 33.2662 101.67 33.0067 102.667 32.4844C103.664 31.9621 104.412 31.1565 104.913 30.0607C105.415 28.9683 105.664 27.5653 105.664 25.8584C105.664 24.1516 105.412 22.769 104.907 21.68C104.401 20.5911 103.654 19.7854 102.667 19.2631C101.681 18.7409 100.455 18.4814 98.994 18.4814H93.1668V14.4498H99.2705C101.561 14.4498 103.531 14.9073 105.183 15.8221C106.835 16.737 108.105 18.0445 108.993 19.7479C109.88 21.4513 110.327 23.4859 110.327 25.8584C110.327 28.2309 109.884 30.286 108.993 31.9929C108.102 33.6997 106.828 35.0106 105.166 35.9254C103.503 36.8403 101.513 37.2977 99.192 37.2977Z" fill="#FF8057"/>
<path d="M117.257 14.4464V37.2943H112.581V14.4464H117.257Z" fill="#FF8057"/>
<path d="M124.819 14.4464V37.2943H120.142V14.4464H124.819Z" fill="#FF8057"/>
<path d="M117.401 7.2196C117.401 7.2196 113.577 -1.63896 108.078 0.269302C102.766 2.1127 104.313 12.3709 116.445 11.9681H120.903C133.035 12.3743 134.582 2.11612 129.27 0.269302C123.767 -1.64237 119.9 7.2947 119.9 7.2947C118.732 6.62903 117.401 7.21619 117.401 7.21619V7.2196ZM110.345 8.65677C109.02 7.98427 107.716 6.84068 107.337 5.34889C107.194 4.78222 107.218 4.16434 107.477 3.64204C108.136 2.32777 110.02 2.30728 111.164 2.92858C112.167 3.47477 112.932 4.41354 113.557 5.34889C114.175 6.27401 114.68 7.27422 115.117 8.29492C115.158 8.38709 115.608 9.70819 115.667 9.70819C113.854 9.74916 111.983 9.4863 110.348 8.65677H110.345ZM130.011 5.34889C129.629 6.84068 128.325 7.98427 127.003 8.65677C125.372 9.4863 123.501 9.74916 121.685 9.70819C121.74 9.70819 122.194 8.38709 122.235 8.29492C122.671 7.27422 123.18 6.27742 123.795 5.34889C124.419 4.41354 125.184 3.47477 126.188 2.92858C127.328 2.30728 129.216 2.32777 129.874 3.64204C130.134 4.16434 130.158 4.78222 130.014 5.34889H130.011Z" fill="#FF8057"/>
</svg>
